# xmcd
#
# Track frame offsets:
#  150
#  15015
#  31032
#  49762
#  62010
#  75550
#  97157
#  109457
#  126050
#  140345
#  156467
#  177315
#
# Disc length: 2543 seconds
#
# Revision: 2
# Processed by: cddbd v1.5.1PL0 Copyright (c) Steve Scherf et al.
# Submitted via: AltoMP3_Maker 3.0
#
DISCID=9609ed0c
DTITLE=Alberta Hunter, Lucille Hegamin, Victoria Spivey - Songs We Taught Your
DYEAR=1900
DGENRE=
TTITLE0=Alberta Hunter - I Got Myself a Workin' Man
TTITLE1=Lucille Hegamin - St. Louis Blues
TTITLE2=Victoria Spivey - Black Snake Blues
TTITLE3=Alberta Hunter - I Got a Mind to Ramble
TTITLE4=Lucille Hegamin - You'll Want My Love
TTITLE5=Victoria Spivey - Going Blues
TTITLE6=Alberta Hunter - You Gotta Reap What You Sow
TTITLE7=Lucille Hegamin - Arkansas Blues
TTITLE8=Victoria Spivey - Got the Blues So Bad
TTITLE9=Alberta Hunter - Chirpin' the Blues
TTITLE10=Lucille Hegamin - Has Anybody Seen My Corine
TTITLE11=Victoria Spivey - Let Him Beat Me
EXTD=
EXTT0=
EXTT1=
EXTT2=
EXTT3=
EXTT4=
EXTT5=
EXTT6=
EXTT7=
EXTT8=
EXTT9=
EXTT10=
EXTT11=
PLAYORDER=
